<?xml version="1.0" standalone="no"?>
<!DOCTYPE svg PUBLIC "-//W3C//DTD SVG 20010904//EN"
 "http://www.w3.org/TR/2001/REC-SVG-20010904/DTD/svg10.dtd">
<svg version="1.0" xmlns="http://www.w3.org/2000/svg"
 width="284.000000pt" height="284.000000pt" viewBox="0 0 284.000000 284.000000"
 preserveAspectRatio="xMidYMid meet">
<metadata>
Created by potrace 1.14, written by Peter Selinger 2001-2017
</metadata>
<g transform="translate(0.000000,284.000000) scale(0.100000,-0.100000)"
fill="#000000" stroke="none">
<path d="M0 1422 l0 -1418 1418 1 1417 0 0 1418 1 1417 -1418 0 -1418 0 0
-1418z m2481 1054 c5 -58 3 -2095 -2 -2106 -6 -13 -133 -15 -1061 -14 -579 1
-1056 2 -1059 3 -4 0 -7 480 -7 1065 l0 1064 1064 0 c788 0 1064 -3 1065 -12z"/>
<path d="M717 2158 c-10 -6 -18 -306 -9 -335 3 -10 136 -13 617 -13 l614 0 93
173 c52 94 93 174 91 176 -5 7 -1394 6 -1406 -1z"/>
<path d="M709 1585 c-1 -5 -2 -85 -3 -177 l-1 -166 568 -1 567 0 0 52 c2 178
0 290 -4 295 -11 10 -1126 7 -1127 -3z"/>
<path d="M727 1031 c-6 -2 -14 -7 -17 -12 -4 -5 -5 -302 -1 -331 1 -4 320 -7
711 -7 l710 0 -44 82 c-25 45 -67 124 -94 176 l-50 94 -601 1 c-331 1 -607 -1
-614 -3z"/>
</g>
</svg>
