<?xml version="1.0" encoding="utf-8"?>
<!-- Generator: Adobe Illustrator 26.3.1, SVG Export Plug-In . SVG Version: 6.00 Build 0)  -->
<svg version="1.1" id="Слой_1" xmlns="http://www.w3.org/2000/svg" xmlns:xlink="http://www.w3.org/1999/xlink" x="0px" y="0px"
	 width="500px" height="500px" viewBox="0 0 500 500" enable-background="new 0 0 500 500" xml:space="preserve">
<rect fill="#FFFFFF" width="500" height="500"/>
<path d="M156.4,375.4c0-5.1,0-10.3,0-15.4c0-12.3,0-24.6,0-37c0-14.9,0-29.8,0-44.7c0-12.9,0-25.8,0-38.7c0-6.3,0.1-12.5,0-18.8
	c0-0.1,0-0.2,0-0.3c0-4.5-3.9-8.8-8.6-8.6c-4.7,0.2-8.6,3.8-8.6,8.6c0,5.1,0,10.3,0,15.4c0,12.3,0,24.6,0,37c0,14.9,0,29.8,0,44.7
	c0,12.9,0,25.8,0,38.7c0,6.3-0.1,12.5,0,18.8c0,0.1,0,0.2,0,0.3c0,4.5,3.9,8.8,8.6,8.6C152.5,383.7,156.4,380.2,156.4,375.4z"/>
<path d="M156.4,167.4c0-13.5,0-27,0-40.6c0-1.9,0-3.7,0-5.6c0-4.5-3.9-8.8-8.6-8.6c-4.7,0.2-8.6,3.8-8.6,8.6c0,13.5,0,27,0,40.6
	c0,1.9,0,3.7,0,5.6c0,4.5,3.9,8.8,8.6,8.6C152.5,175.8,156.4,172.2,156.4,167.4z"/>
<path d="M165.8,194c0,1.2-0.1,2.4-0.2,3.6c0.1-0.8,0.2-1.5,0.3-2.3c-0.3,2.3-0.9,4.5-1.8,6.7c0.3-0.7,0.6-1.4,0.9-2.1
	c-0.7,1.5-1.4,3-2.3,4.3c-0.1,0.2-0.7,1.2-0.9,1.2c0.2,0,1.5-1.9,0.4-0.5c-0.5,0.6-1.1,1.2-1.6,1.8c-0.6,0.6-1.2,1.1-1.8,1.6
	c-0.5,0.5-1.6,1,0.5-0.4c-0.4,0.2-0.7,0.5-1.1,0.7c-1.4,0.9-2.9,1.7-4.5,2.4c0.7-0.3,1.4-0.6,2.1-0.9c-2.1,0.9-4.4,1.5-6.7,1.8
	c0.8-0.1,1.5-0.2,2.3-0.3c-2.4,0.3-4.8,0.3-7.1,0c0.8,0.1,1.5,0.2,2.3,0.3c-2.3-0.3-4.5-0.9-6.7-1.8c0.7,0.3,1.4,0.6,2.1,0.9
	c-1.5-0.7-3-1.4-4.3-2.3c-0.2-0.1-1.2-0.7-1.2-0.9c0,0.2,1.9,1.5,0.5,0.4c-0.6-0.5-1.2-1.1-1.8-1.6c-0.6-0.6-1.1-1.2-1.6-1.8
	c-0.5-0.5-1-1.6,0.4,0.5c-0.2-0.4-0.5-0.7-0.7-1.1c-0.9-1.4-1.7-2.9-2.4-4.5c0.3,0.7,0.6,1.4,0.9,2.1c-0.9-2.1-1.5-4.4-1.8-6.7
	c0.1,0.8,0.2,1.5,0.3,2.3c-0.3-2.4-0.3-4.8,0-7.1c-0.1,0.8-0.2,1.5-0.3,2.3c0.3-2.3,0.9-4.5,1.8-6.7c-0.3,0.7-0.6,1.4-0.9,2.1
	c0.7-1.5,1.4-3,2.3-4.3c0.1-0.2,0.7-1.2,0.9-1.2c-0.2,0-1.5,1.9-0.4,0.5c0.5-0.6,1.1-1.2,1.6-1.8c0.6-0.6,1.2-1.1,1.8-1.6
	c0.5-0.5,1.6-1-0.5,0.4c0.4-0.2,0.7-0.5,1.1-0.7c1.4-0.9,2.9-1.7,4.5-2.4c-0.7,0.3-1.4,0.6-2.1,0.9c2.1-0.9,4.4-1.5,6.7-1.8
	c-0.8,0.1-1.5,0.2-2.3,0.3c2.4-0.3,4.8-0.3,7.1,0c-0.8-0.1-1.5-0.2-2.3-0.3c2.3,0.3,4.5,0.9,6.7,1.8c-0.7-0.3-1.4-0.6-2.1-0.9
	c1.5,0.7,3,1.4,4.3,2.3c0.2,0.1,1.2,0.7,1.2,0.9c0-0.2-1.9-1.5-0.5-0.4c0.6,0.5,1.2,1.1,1.8,1.6c0.6,0.6,1.1,1.2,1.6,1.8
	c0.5,0.5,1,1.6-0.4-0.5c0.2,0.4,0.5,0.7,0.7,1.1c0.9,1.4,1.7,2.9,2.4,4.5c-0.3-0.7-0.6-1.4-0.9-2.1c0.9,2.1,1.5,4.4,1.8,6.7
	c-0.1-0.8-0.2-1.5-0.3-2.3C165.7,191.6,165.8,192.8,165.8,194c0,4.5,3.9,8.8,8.6,8.6c4.6-0.2,8.6-3.8,8.6-8.6
	c-0.1-6.9-2.1-14.1-6.2-19.8c-4.5-6.2-10.3-10.7-17.5-13.4c-13.1-4.9-29.4-0.5-38.2,10.4c-4.9,6.1-7.8,12.9-8.3,20.8
	c-0.5,6.9,1.3,14.1,4.9,19.9c3.5,5.8,8.8,10.9,14.9,13.7c7.3,3.3,14.8,4.3,22.7,2.7c16.1-3.1,27.6-18.2,27.8-34.4
	c0-4.5-4-8.8-8.6-8.6C169.7,185.6,165.8,189.2,165.8,194z"/>
<path d="M20.5,490c0-0.9,0-1.9,0-2.8c0-0.1,0-0.3,0-0.4c0-0.4-0.3-0.7-0.7-0.7c-0.4,0-0.7,0.3-0.7,0.7c0,0.9,0,1.9,0,2.8
	c0,0.1,0,0.3,0,0.4c0,0.4,0.3,0.7,0.7,0.7C20.2,490.7,20.5,490.4,20.5,490z"/>
<path d="M256,281.7c0-5.3,0-10.7,0-16c0-12.7,0-25.5,0-38.2c0-15.5,0-31,0-46.5c0-13.3,0-26.6,0-40c0-6.5,0.1-13,0-19.5
	c0-0.1,0-0.2,0-0.3c0-4.5-3.9-8.8-8.6-8.6c-4.7,0.2-8.6,3.8-8.6,8.6c0,5.3,0,10.7,0,16c0,12.7,0,25.5,0,38.2c0,15.5,0,31,0,46.5
	c0,13.3,0,26.6,0,40c0,6.5-0.1,13,0,19.5c0,0.1,0,0.2,0,0.3c0,4.5,3.9,8.8,8.6,8.6C252.1,290.1,256,286.5,256,281.7z"/>
<path d="M265.4,308.3c0,1.2-0.1,2.4-0.2,3.6c0.1-0.8,0.2-1.5,0.3-2.3c-0.3,2.3-0.9,4.5-1.8,6.7c0.3-0.7,0.6-1.4,0.9-2.1
	c-0.7,1.5-1.4,3-2.3,4.3c-0.1,0.2-0.7,1.2-0.9,1.2c0.2,0,1.5-1.9,0.4-0.5c-0.5,0.6-1.1,1.2-1.6,1.8c-0.6,0.6-1.2,1.1-1.8,1.6
	c-0.5,0.5-1.6,1,0.5-0.4c-0.4,0.2-0.7,0.5-1.1,0.7c-1.4,0.9-2.9,1.7-4.5,2.4c0.7-0.3,1.4-0.6,2.1-0.9c-2.1,0.9-4.4,1.5-6.7,1.8
	c0.8-0.1,1.5-0.2,2.3-0.3c-2.4,0.3-4.8,0.3-7.1,0c0.8,0.1,1.5,0.2,2.3,0.3c-2.3-0.3-4.5-0.9-6.7-1.8c0.7,0.3,1.4,0.6,2.1,0.9
	c-1.5-0.7-3-1.4-4.3-2.3c-0.2-0.1-1.2-0.7-1.2-0.9c0,0.2,1.9,1.5,0.5,0.4c-0.6-0.5-1.2-1.1-1.8-1.6c-0.6-0.6-1.1-1.2-1.6-1.8
	c-0.5-0.5-1-1.6,0.4,0.5c-0.2-0.4-0.5-0.7-0.7-1.1c-0.9-1.4-1.7-2.9-2.4-4.5c0.3,0.7,0.6,1.4,0.9,2.1c-0.9-2.1-1.5-4.4-1.8-6.7
	c0.1,0.8,0.2,1.5,0.3,2.3c-0.3-2.4-0.3-4.8,0-7.1c-0.1,0.8-0.2,1.5-0.3,2.3c0.3-2.3,0.9-4.5,1.8-6.7c-0.3,0.7-0.6,1.4-0.9,2.1
	c0.7-1.5,1.4-3,2.3-4.3c0.1-0.2,0.7-1.2,0.9-1.2c-0.2,0-1.5,1.9-0.4,0.5c0.5-0.6,1.1-1.2,1.6-1.8c0.6-0.6,1.2-1.1,1.8-1.6
	c0.5-0.5,1.6-1-0.5,0.4c0.4-0.2,0.7-0.5,1.1-0.7c1.4-0.9,2.9-1.7,4.5-2.4c-0.7,0.3-1.4,0.6-2.1,0.9c2.1-0.9,4.4-1.5,6.7-1.8
	c-0.8,0.1-1.5,0.2-2.3,0.3c2.4-0.3,4.8-0.3,7.1,0c-0.8-0.1-1.5-0.2-2.3-0.3c2.3,0.3,4.5,0.9,6.7,1.8c-0.7-0.3-1.4-0.6-2.1-0.9
	c1.5,0.7,3,1.4,4.3,2.3c0.2,0.1,1.2,0.7,1.2,0.9c0-0.2-1.9-1.5-0.5-0.4c0.6,0.5,1.2,1.1,1.8,1.6c0.6,0.6,1.1,1.2,1.6,1.8
	c0.5,0.5,1,1.6-0.4-0.5c0.2,0.4,0.5,0.7,0.7,1.1c0.9,1.4,1.7,2.9,2.4,4.5c-0.3-0.7-0.6-1.4-0.9-2.1c0.9,2.1,1.5,4.4,1.8,6.7
	c-0.1-0.8-0.2-1.5-0.3-2.3C265.3,305.9,265.4,307.1,265.4,308.3c0,4.5,3.9,8.8,8.6,8.6c4.6-0.2,8.6-3.8,8.6-8.6
	c-0.1-6.9-2.1-14.1-6.2-19.8c-4.5-6.2-10.3-10.7-17.5-13.4c-13.1-4.9-29.4-0.5-38.2,10.4c-4.9,6.1-7.8,12.9-8.3,20.8
	c-0.5,6.9,1.3,14.1,4.9,19.9c3.5,5.8,8.8,10.9,14.9,13.7c7.3,3.3,14.8,4.3,22.7,2.7c16.1-3.1,27.6-18.2,27.8-34.4
	c0-4.5-4-8.8-8.6-8.6C269.3,299.9,265.4,303.5,265.4,308.3z"/>
<path d="M355.6,375.4c0-3.3,0-6.7,0-10c0-8,0-16,0-24c0-9.7,0-19.3,0-29c0-8.4,0-16.7,0-25.1c0-4.1,0.1-8.2,0-12.2
	c0-0.1,0-0.1,0-0.2c0-4.5-3.9-8.8-8.6-8.6c-4.7,0.2-8.6,3.8-8.6,8.6c0,3.3,0,6.7,0,10c0,8,0,16,0,24c0,9.7,0,19.4,0,29
	c0,8.4,0,16.7,0,25.1c0,4.1-0.1,8.2,0,12.2c0,0.1,0,0.1,0,0.2c0,4.5,3.9,8.8,8.6,8.6C351.7,383.7,355.6,380.2,355.6,375.4z"/>
<path d="M355.6,221.7c0-3.3,0-6.7,0-10c0-8,0-16,0-24c0-9.7,0-19.4,0-29c0-8.4,0-16.8,0-25.1c0-4.1,0.1-8.2,0-12.2
	c0-0.1,0-0.1,0-0.2c0-4.5-3.9-8.8-8.6-8.6c-4.7,0.2-8.6,3.8-8.6,8.6c0,3.3,0,6.7,0,10c0,8,0,16,0,24c0,9.7,0,19.4,0,29
	c0,8.4,0,16.8,0,25.1c0,4.1-0.1,8.2,0,12.2c0,0.1,0,0.1,0,0.2c0,4.5,3.9,8.8,8.6,8.6C351.7,230.1,355.6,226.5,355.6,221.7z"/>
<path d="M365,248.3c0,1.2-0.1,2.4-0.2,3.6c0.1-0.8,0.2-1.5,0.3-2.3c-0.3,2.3-0.9,4.5-1.8,6.7c0.3-0.7,0.6-1.4,0.9-2.1
	c-0.7,1.5-1.4,3-2.3,4.3c-0.1,0.2-0.7,1.2-0.9,1.2c0.2,0,1.5-1.9,0.4-0.5c-0.5,0.6-1.1,1.2-1.6,1.8c-0.6,0.6-1.2,1.1-1.8,1.6
	c-0.5,0.5-1.6,1,0.5-0.4c-0.4,0.2-0.7,0.5-1.1,0.7c-1.4,0.9-2.9,1.7-4.5,2.4c0.7-0.3,1.4-0.6,2.1-0.9c-2.1,0.9-4.4,1.5-6.7,1.8
	c0.8-0.1,1.5-0.2,2.3-0.3c-2.4,0.3-4.8,0.3-7.1,0c0.8,0.1,1.5,0.2,2.3,0.3c-2.3-0.3-4.5-0.9-6.7-1.8c0.7,0.3,1.4,0.6,2.1,0.9
	c-1.5-0.7-3-1.4-4.3-2.3c-0.2-0.1-1.2-0.7-1.2-0.9c0,0.2,1.9,1.5,0.5,0.4c-0.6-0.5-1.2-1.1-1.8-1.6c-0.6-0.6-1.1-1.2-1.6-1.8
	c-0.5-0.5-1-1.6,0.4,0.5c-0.2-0.4-0.5-0.7-0.7-1.1c-0.9-1.4-1.7-2.9-2.4-4.5c0.3,0.7,0.6,1.4,0.9,2.1c-0.9-2.1-1.5-4.4-1.8-6.7
	c0.1,0.8,0.2,1.5,0.3,2.3c-0.3-2.4-0.3-4.8,0-7.1c-0.1,0.8-0.2,1.5-0.3,2.3c0.3-2.3,0.9-4.5,1.8-6.7c-0.3,0.7-0.6,1.4-0.9,2.1
	c0.7-1.5,1.4-3,2.3-4.3c0.1-0.2,0.7-1.2,0.9-1.2c-0.2,0-1.5,1.9-0.4,0.5c0.5-0.6,1.1-1.2,1.6-1.8c0.6-0.6,1.2-1.1,1.8-1.6
	c0.5-0.5,1.6-1-0.5,0.4c0.4-0.2,0.7-0.5,1.1-0.7c1.4-0.9,2.9-1.7,4.5-2.4c-0.7,0.3-1.4,0.6-2.1,0.9c2.1-0.9,4.4-1.5,6.7-1.8
	c-0.8,0.1-1.5,0.2-2.3,0.3c2.4-0.3,4.8-0.3,7.1,0c-0.8-0.1-1.5-0.2-2.3-0.3c2.3,0.3,4.5,0.9,6.7,1.8c-0.7-0.3-1.4-0.6-2.1-0.9
	c1.5,0.7,3,1.4,4.3,2.3c0.2,0.1,1.2,0.7,1.2,0.9c0-0.2-1.9-1.5-0.5-0.4c0.6,0.5,1.2,1.1,1.8,1.6c0.6,0.6,1.1,1.2,1.6,1.8
	c0.5,0.5,1,1.6-0.4-0.5c0.2,0.4,0.5,0.7,0.7,1.1c0.9,1.4,1.7,2.9,2.4,4.5c-0.3-0.7-0.6-1.4-0.9-2.1c0.9,2.1,1.5,4.4,1.8,6.7
	c-0.1-0.8-0.2-1.5-0.3-2.3C364.9,245.9,365,247.1,365,248.3c0,4.5,3.9,8.8,8.6,8.6c4.6-0.2,8.6-3.8,8.6-8.6
	c-0.1-6.9-2.1-14.1-6.2-19.8c-4.5-6.2-10.3-10.7-17.5-13.4c-13.1-4.9-29.4-0.5-38.2,10.4c-4.9,6.1-7.8,12.9-8.3,20.8
	c-0.5,6.9,1.3,14.1,4.9,19.9c3.5,5.8,8.8,10.9,14.9,13.7c7.3,3.3,14.8,4.3,22.7,2.7c16.1-3.1,27.6-18.2,27.8-34.4
	c0-4.5-4-8.8-8.6-8.6C368.9,239.9,365,243.5,365,248.3z"/>
</svg>
