<?xml version="1.0" encoding="utf-8"?>
<!-- Generator: Adobe Illustrator 26.3.1, SVG Export Plug-In . SVG Version: 6.00 Build 0)  -->
<svg version="1.1" id="Capa_1" xmlns="http://www.w3.org/2000/svg" xmlns:xlink="http://www.w3.org/1999/xlink" x="0px" y="0px"
	 width="540.7px" height="500px" viewBox="0 0 540.7 500" enable-background="new 0 0 540.7 500" xml:space="preserve">
<g>
	<g>
		<path fill="#73D0F4" d="M384.9,32.1c-38.1,0-77.3,18.3-102.2,47.7c-3.1,3.6-7.5,5.7-12.3,5.7c0,0,0,0,0,0c-4.7,0-9.2-2.1-12.3-5.7
			C233.2,50.4,194,32.1,155.9,32.1c-69.4,0-123.7,54.4-123.7,123.8c0,87.6,77.1,160,213.2,280.5c0.2,0.2,0.5,0.4,0.7,0.6l24.3,24.2
			l24.3-24.2c0.2-0.2,0.5-0.4,0.7-0.6c136.2-120.5,213.2-192.9,213.2-280.5C508.6,86.5,454.2,32.1,384.9,32.1z M165.4,88.9
			c-43.1,0-76.8,33.7-76.8,76.8c0,8.9-7.2,16.1-16.1,16.1s-16.1-7.2-16.1-16.1c0-61.1,47.9-109,108.9-109c8.9,0,16.1,7.2,16.1,16.1
			C181.5,81.7,174.3,88.9,165.4,88.9z"/>
		<path fill="#3D6889" d="M384.9,0c-42.1,0-83.8,17-114.5,46.1C239.7,17,198,0,155.9,0C68.5,0,0,68.5,0,155.9
			c0,48.9,20.1,96.2,63.4,148.9c37.7,45.9,90.3,93.4,160.3,155.4l35.3,35.1c3.1,3.1,7.2,4.7,11.3,4.7c4.1,0,8.2-1.6,11.3-4.7
			l35.3-35.1c70.1-62,122.6-109.4,160.3-155.4c43.2-52.7,63.4-100,63.4-148.9C540.7,68.5,472.3,0,384.9,0z M295.4,436.4
			c-0.2,0.2-0.5,0.4-0.7,0.6l-24.3,24.2l-24.3-24.2c-0.2-0.2-0.5-0.4-0.7-0.6C109.2,315.9,32.1,243.5,32.1,155.9
			c0-69.4,54.4-123.7,123.7-123.7c38.2,0,77.3,18.3,102.2,47.7c3.1,3.6,7.5,5.7,12.3,5.7c0,0,0,0,0,0c4.7,0,9.2-2.1,12.3-5.7
			c24.9-29.4,64.1-47.7,102.2-47.7c69.4,0,123.7,54.4,123.7,123.7C508.6,243.5,431.5,315.9,295.4,436.4z"/>
		<path fill="#3D6889" d="M165.4,56.8c-61.1,0-108.9,47.9-108.9,109c0,8.9,7.2,16.1,16.1,16.1s16.1-7.2,16.1-16.1
			c0-43.1,33.7-76.8,76.8-76.8c8.9,0,16.1-7.2,16.1-16.1C181.5,64,174.3,56.8,165.4,56.8z"/>
	</g>
</g>
</svg>
