<?xml version="1.0" encoding="utf-8"?>
<!-- Generator: Adobe Illustrator 26.3.1, SVG Export Plug-In . SVG Version: 6.00 Build 0)  -->
<svg version="1.1" id="Слой_1" xmlns="http://www.w3.org/2000/svg" xmlns:xlink="http://www.w3.org/1999/xlink" x="0px" y="0px"
	 width="120px" height="39px" viewBox="0 0 120 39" enable-background="new 0 0 120 39" xml:space="preserve">
<path id="Fill_1" fill-rule="evenodd" clip-rule="evenodd" fill="#3C3C3C" d="M17.8,14.3v-3.9H4V6.5C4,5,5.8,4.2,7.1,4.1h11.7
	c0.7-1.3,1.4-2.6,2.1-3.9H7.1c-3.1,0-6.9,1.8-7,5.4v13c0,3.5,3.9,5.3,7,5.4h13.8l-2.1-3.9H7.1c-1.4,0-3.1-0.8-3.1-2.4v-3.4H17.8z
	 M45.5,4.1V0.3H31c-2.9,0-7,1.2-7,4.8v4.5c0,1.2,1.2,2.1,2.3,2.4L42,16c0.3,0.1,0.7,0.4,0.7,0.8v1c0,1.6-1.6,2.4-3,2.4H24V24h15.7
	c3,0,6.7-1.6,6.7-5.1v-4c0-1.2-1.1-2.2-2.1-2.4l-15.7-4c-0.4-0.1-0.7-0.4-0.7-0.8V6.3c0-1.6,1.9-2.2,3.2-2.2H45.5z M110.4,24V4.1
	h9.3V0.3H97.4v3.9h9.2V24H110.4z M62.1,24V4.1h9.3V0.3H49.1v3.9h9.2V24H62.1z M106.2,37.4h1.1l2.4-3.3v3.3h1.1v-5h-1.1
	c-0.8,1.1-1.6,2.2-2.4,3.4v-3.4h-1.1V37.4z M100.2,37.4h1.1l2.4-3.3v3.3h1.1v-5h-1.1c-0.8,1.1-1.6,2.2-2.4,3.4v-3.4h-1.1V37.4z
	 M95.8,37.4h1.1v-4h2.4v-1h-3.5V37.4z M91.9,36.5c-0.9,0-1.5-0.7-1.5-1.6c0-0.9,0.6-1.6,1.5-1.6c0.9,0,1.5,0.7,1.5,1.6
	C93.4,35.8,92.9,36.5,91.9,36.5z M91.9,37.5c1.5,0,2.7-1.2,2.7-2.6c0-1.5-1.1-2.6-2.7-2.6c-1.5,0-2.7,1.2-2.7,2.6
	C89.3,36.4,90.4,37.5,91.9,37.5z M83.6,37.5c1.1,0,1.8-0.4,1.8-4.1h1.6v4h1.1v-5h-3.8c0,3.8-0.4,4.1-1,4.1c-0.1,0-0.3,0-0.3,0
	l-0.1,0.9C83.1,37.4,83.4,37.5,83.6,37.5z M79.8,36.5c-0.9,0-1.5-0.7-1.5-1.6c0-0.9,0.6-1.6,1.5-1.6c0.9,0,1.5,0.7,1.5,1.6
	C81.3,35.8,80.7,36.5,79.8,36.5z M79.8,37.5c1.5,0,2.7-1.2,2.7-2.6c0-1.5-1.1-2.6-2.7-2.6c-1.5,0-2.7,1.2-2.7,2.6
	C77.1,36.4,78.3,37.5,79.8,37.5z M71.5,37.4h1.1v-2h2.2v2H76v-5h-1.1v2h-2.2v-2h-1.1V37.4z M65.5,37.4h1.2l1.2-1.8l1.2,1.8h1.3
	l-1.8-2.6l1.8-2.4h-1.2L68,34.1l-1.2-1.6h-1.3l1.8,2.5L65.5,37.4z M61.1,34.6c0.1-0.8,0.6-1.3,1.3-1.3c0.8,0,1.2,0.6,1.3,1.3H61.1z
	 M62.5,37.5c0.9,0,1.6-0.4,2-0.9L63.9,36c-0.4,0.4-0.8,0.6-1.4,0.6c-0.7,0-1.3-0.5-1.4-1.3h3.7c0-0.1,0-0.2,0-0.3
	c0-1.4-0.8-2.7-2.4-2.7c-1.4,0-2.4,1.2-2.4,2.6C60,36.5,61.1,37.5,62.5,37.5z M56.6,37.4h1.2v-4h1.6v-1h-4.4v1h1.6V37.4z M47.8,34.6
	c0.1-0.8,0.6-1.3,1.3-1.3c0.8,0,1.2,0.6,1.3,1.3H47.8z M49.2,37.5c0.9,0,1.6-0.4,2-0.9L50.6,36c-0.4,0.4-0.8,0.6-1.4,0.6
	c-0.7,0-1.3-0.5-1.4-1.3h3.7c0-0.1,0-0.2,0-0.3c0-1.4-0.8-2.7-2.4-2.7c-1.4,0-2.4,1.2-2.4,2.6C46.6,36.5,47.8,37.5,49.2,37.5z
	 M44.3,37.4h1.1v-5h-1.1V37.4z M40.5,36.5v-1.4h1c0.6,0,0.9,0.2,0.9,0.7c0,0.5-0.3,0.7-0.9,0.7H40.5z M39.4,37.4h2.3
	c1.2,0,1.9-0.6,1.9-1.7c0-1.1-0.9-1.6-2-1.6h-1.1v-1.8h-1.1V37.4z M33.4,37.4h1.1v-2h2.2v2h1.1v-5h-1.1v2h-2.2v-2h-1.1V37.4z
	 M29.7,36.5c-0.8,0-1.5-0.6-1.5-1.6c0-1,0.7-1.6,1.5-1.6c0.8,0,1.4,0.6,1.4,1.6C31.1,35.9,30.4,36.5,29.7,36.5z M27.1,38.9h1.1v-2.3
	c0.4,0.5,0.9,0.9,1.7,0.9c1.2,0,2.3-0.9,2.3-2.6c0-1.7-1.1-2.6-2.3-2.6c-0.8,0-1.3,0.4-1.7,0.9v-0.8h-1.1V38.9z M22.2,34.6
	c0.1-0.8,0.6-1.3,1.3-1.3c0.8,0,1.2,0.6,1.3,1.3H22.2z M23.7,37.5c0.9,0,1.6-0.4,2-0.9L25,36c-0.4,0.4-0.8,0.6-1.4,0.6
	c-0.7,0-1.3-0.5-1.4-1.3h3.7c0-0.1,0-0.2,0-0.3c0-1.4-0.8-2.7-2.4-2.7c-1.4,0-2.4,1.2-2.4,2.6C21.1,36.5,22.2,37.5,23.7,37.5z
	 M16.9,34.5v-1.2h1.2c0.5,0,0.7,0.2,0.7,0.6c0,0.4-0.3,0.6-0.7,0.6H16.9z M16.9,36.5v-1.3h1.2c0.6,0,0.9,0.2,0.9,0.6
	c0,0.4-0.3,0.6-0.9,0.6H16.9z M15.8,37.4h2.6c1.1,0,1.8-0.5,1.8-1.4c0-0.7-0.4-1.1-1-1.3c0.4-0.2,0.8-0.5,0.8-1.1
	c0-0.8-0.7-1.3-1.6-1.3h-2.6V37.4z M10.8,36.4c0.3-0.6,0.5-1.5,0.5-2.4v-0.7H13v3H10.8z M9.1,38.6h1l0.1-1.2h3.5v1.2h1l0.2-2.2h-0.7
	v-4h-3.9V33c0,1.4-0.1,2.6-0.6,3.4H9.1V38.6z M92,14.3v-3.9H78.2V6.5c0-1.6,1.7-2.4,3.1-2.4h11.7c0.7-1.3,1.4-2.6,2.1-3.9H81.3
	c-3.1,0-6.9,1.8-7,5.4v13c0,3.5,3.9,5.3,7,5.4h13.8l-2.1-3.9H81.3c-1.4,0-3.1-0.8-3.1-2.4v-3.4H92z"/>
</svg>
