<?xml version="1.0" encoding="utf-8"?>
<!-- Generator: Adobe Illustrator 26.3.1, SVG Export Plug-In . SVG Version: 6.00 Build 0)  -->
<svg version="1.1" id="Слой_1" xmlns="http://www.w3.org/2000/svg" xmlns:xlink="http://www.w3.org/1999/xlink" x="0px" y="0px"
	 width="1547.6px" height="500px" viewBox="0 0 1547.6 500" enable-background="new 0 0 1547.6 500" xml:space="preserve">
<defs>
	<filter id="Adobe_OpacityMaskFilter" filterUnits="userSpaceOnUse" x="0" y="0" width="1547.6" height="500">
		<feColorMatrix  type="matrix" values="1 0 0 0 0  0 1 0 0 0  0 0 1 0 0  0 0 0 1 0"/>
	</filter>
</defs>
<mask maskUnits="userSpaceOnUse" x="0" y="0" width="1547.6" height="500" id="mask0_0_10786_00000074432688859167047460000005191922622323902091_">
	<path fill-rule="evenodd" clip-rule="evenodd" fill="#FFFFFF" filter="url(#Adobe_OpacityMaskFilter)" d="M0,0h1547.6v500H0V0z"/>
</mask>
<g mask="url(#mask0_0_10786_00000074432688859167047460000005191922622323902091_)">
	<path fill-rule="evenodd" clip-rule="evenodd" fill="#FEFEFE" d="M228,181v-49.9H49.9V80.9c0-20.5,22.5-30.9,40.3-31H242
		c9-16.6,18-33.3,27.1-49.9H90.2C50,0.2,0.4,23.6,0,69.4v167.8c0.4,45.8,50,69.1,90.2,69.4H269l-26.6-49.9H90.2
		c-17.9,0-40.3-10.8-40.3-31V181H228z M587.3,49.9V0H398.5c-37.5,0-90.2,16-90.2,61.6v57.8c0,14.9,15.8,27.6,29.2,31l203.7,52.2
		c4.4,1.1,9.5,4.8,9.5,9.8v13.1c0,20.3-21.3,31-39.3,31H308.3v49.9h203.2c39.4-0.3,87-21,87-66.5v-51.4c0-14.9-13.9-27.9-27.6-31.4
		l-203.7-51.8c-4.7-1.2-9.5-5-9.5-10.2V78c0-20.4,24-28.2,40.8-28.2H587.3z M1427.2,306.5V49.9h120.4V0h-289.1v49.9h118.9v256.7
		H1427.2z M801.7,306.5V49.9h120.4V0H632.9v49.9h118.9v256.7H801.7z M1372.5,480.4h14l30.8-43.2v43.2h14.3v-64.8h-14
		c-10.3,14.5-20.5,28.9-30.7,43.4v-43.4h-14.5V480.4z M1294.8,480.4h14l30.8-43.2v43.2h14.3v-64.8h-14
		c-10.3,14.5-20.5,28.9-30.7,43.4v-43.4h-14.5V480.4z M1237.1,480.4h14.8v-52h31v-12.8h-45.9V480.4z M1187.5,469
		c-11.5,0-19.7-9.6-19.7-20.9c0-11.5,7.6-20.8,19.5-20.8c11.7,0,19.9,9.4,19.9,20.8C1207.2,459.5,1199.6,469,1187.5,469z
		 M1187.3,481.8c20,0,34.7-15.3,34.7-33.7c0-18.8-14.6-33.8-34.5-33.8c-19.9,0-34.6,15.3-34.6,33.8
		C1153,466.8,1167.5,481.8,1187.3,481.8z M1079.6,481.1c14.4,0,23.2-5.8,23.2-52.7h20.2v52h14.8v-64.8h-48.9c0,49.3-5.2,53-12.6,53
		c-1,0-3.3-0.2-4.3-0.5l-1.1,12.1C1073.1,480.6,1077.3,481.1,1079.6,481.1z M1030.5,469c-11.5,0-19.7-9.6-19.7-20.9
		c0-11.5,7.6-20.8,19.5-20.8c11.7,0,19.9,9.4,19.9,20.8C1050.2,459.5,1042.6,469,1030.5,469z M1030.3,481.8
		c20,0,34.7-15.3,34.7-33.7c0-18.8-14.6-33.8-34.5-33.8c-19.9,0-34.6,15.3-34.6,33.8C995.9,466.8,1010.5,481.8,1030.3,481.8z
		 M922.6,480.4h14.8v-26.1H966v26.1h14.8v-64.8H966v26.3h-28.6v-26.3h-14.8V480.4z M845.8,480.4h15.8l15.8-22.7l15.9,22.7h16.2
		l-23.9-33.2l22.9-31.5h-15.8l-15,21.3l-15-21.3h-16.2l22.9,31.9L845.8,480.4z M788.5,443.5c1.4-10.1,7.7-17.1,16.8-17.1
		c9.8,0,15.5,7.5,16.4,17.1H788.5z M807,481.8c11.9,0,20.4-4.8,26.5-12.1l-8.7-7.7c-5.2,5-10.3,7.7-17.5,7.7
		c-9.6,0-17.1-5.9-18.6-16.4h47.6c0.1-0.7,0.2-3.2,0.2-4.2c0-18.6-10.4-34.8-31-34.8c-18.5,0-31.6,15.2-31.6,33.7
		C773.8,468.2,788.3,481.8,807,481.8z M729.8,480.4h15v-52h20.9v-12.8h-56.7v12.8h20.9V480.4z M616.2,443.5
		c1.3-10.1,7.7-17.1,16.8-17.1c9.8,0,15.5,7.5,16.4,17.1H616.2z M634.7,481.8c11.9,0,20.4-4.8,26.5-12.1l-8.7-7.7
		c-5.2,5-10.3,7.7-17.5,7.7c-9.6,0-17.1-5.9-18.6-16.4h47.6c0.1-0.7,0.2-3.2,0.2-4.2c0-18.6-10.4-34.8-31-34.8
		c-18.5,0-31.6,15.2-31.6,33.7C601.5,468.2,615.9,481.8,634.7,481.8z M571.5,480.4h14.8v-64.8h-14.8V480.4z M522.3,468.4v-18.5h12.5
		c7.6,0,12,3.2,12,8.9c0,6.3-4.3,9.6-11.8,9.6H522.3z M507.5,480.4h29.6c15.2,0,24.7-8.2,24.7-21.6c0-14.1-11.2-20.5-25.8-20.5
		h-13.6v-22.7h-14.8V480.4z M430.6,480.4h14.8v-26.1H474v26.1h14.8v-64.8H474v26.3h-28.6v-26.3h-14.8V480.4z M381.8,468.8
		c-10.1,0-18.9-8.2-18.9-20.7c0-12.6,8.8-21,18.9-21c10.1,0,18.5,8.2,18.5,20.7C400.3,460.9,391.9,468.8,381.8,468.8z M348.4,500
		h14.8v-29.7c4.5,6,11.3,11.4,22,11.4c15.5,0,30.2-12.1,30.2-33.6c0-21.7-14.8-33.8-30.2-33.8c-10.4,0-17.2,5.4-22,12.1v-10.8h-14.8
		V500z M285.5,443.5c1.4-10.1,7.7-17.1,16.8-17.1c9.8,0,15.5,7.5,16.4,17.1H285.5z M304,481.8c11.9,0,20.4-4.8,26.5-12.1l-8.7-7.7
		c-5.1,5-10.3,7.7-17.5,7.7c-9.6,0-17.1-5.9-18.6-16.4h47.6c0.1-0.7,0.2-3.2,0.2-4.2c0-18.6-10.4-34.8-31-34.8
		c-18.5,0-31.7,15.2-31.7,33.7C270.7,468.2,285.2,481.8,304,481.8z M216.5,442.3V427H232c6.6,0,9.4,3.2,9.4,7.4c0,4.7-3.4,8-9.7,8
		H216.5z M216.5,468.6v-16.2h16.1c8,0,11.8,3.2,11.8,7.9c0,5-3.8,8.3-11,8.3H216.5z M201.9,480.4h33.6c14.7,0,23.9-6.6,23.9-17.5
		c0-9.2-5.5-14-13.4-16.2c5.5-2.5,10.4-6.6,10.4-14.8c0-9.9-8.5-16.2-21.3-16.2h-33.2V480.4z M138.2,467.6c3.8-8,6-18.9,6-30.7v-8.6
		h21.3v39.2H138.2z M116,496h12.4l1.5-15.6h45.4V496h12.4l2-28.3h-9.2v-52h-50.2v8c0,18.2-1.8,33.2-7.2,44h-7V496z M1188.3,181
		v-49.9h-178.1V80.9c0-20.5,22.5-30.9,40.3-31h151.8c9-16.6,18-33.3,27.1-49.9h-178.9c-40.2,0.2-89.8,23.6-90.2,69.4v167.8
		c0.4,45.8,50,69.1,90.2,69.4h178.8l-26.6-49.9h-152.2c-17.9,0-40.3-10.8-40.3-31V181H1188.3z"/>
</g>
</svg>
