<svg width="121" height="19" viewBox="0 0 121 19" fill="none" xmlns="http://www.w3.org/2000/svg">
<g opacity="0.219">
<path d="M6.735 11.6101L4.89 13.5751V17.9401H0V0.495117H4.89V7.74012L11.64 0.495117H17.07L9.945 8.22012L17.445 17.9401H11.715L6.735 11.6101Z" fill="black"/>
<path fill-rule="evenodd" clip-rule="evenodd" d="M16.6047 13.8748C17.4447 15.2548 18.5997 16.3348 20.0697 17.1148C21.5397 17.8948 23.1897 18.2848 25.0347 18.2848C26.8797 18.2848 28.5297 17.8948 29.9997 17.1148C31.4697 16.3348 32.6247 15.2548 33.4647 13.8748C34.3047 12.4948 34.7247 10.9348 34.7247 9.20977C34.7247 7.46977 34.3047 5.92477 33.4647 4.54477C32.6247 3.16477 31.4697 2.08477 29.9997 1.30477C28.5297 0.524766 26.8797 0.134766 25.0347 0.134766C23.1897 0.134766 21.5397 0.524766 20.0697 1.30477C18.5997 2.08477 17.4447 3.16477 16.6047 4.54477C15.7647 5.92477 15.3447 7.48477 15.3447 9.20977C15.3447 10.9498 15.7647 12.4948 16.6047 13.8748ZM29.1297 11.8198C28.7097 12.5698 28.1547 13.1548 27.4347 13.5748C26.7147 13.9948 25.9197 14.2048 25.0497 14.2048C24.1797 14.2048 23.3847 13.9948 22.6647 13.5748C21.9447 13.1548 21.3897 12.5698 20.9697 11.8198C20.5497 11.0548 20.3397 10.1848 20.3397 9.20977C20.3397 8.21977 20.5497 7.34977 20.9697 6.59977C21.3897 5.84977 21.9447 5.26477 22.6647 4.84477C23.3697 4.42477 24.1647 4.21477 25.0497 4.21477C25.9197 4.21477 26.7147 4.42477 27.4347 4.84477C28.1547 5.26477 28.7097 5.84977 29.1297 6.59977C29.5497 7.36477 29.7597 8.23477 29.7597 9.20977C29.7597 10.1998 29.5497 11.0698 29.1297 11.8198Z" fill="black"/>
<path d="M54.255 10.7701V17.9401H48.66H48.36L40.665 8.64012V17.9401H35.835V0.495117H39.9L47.595 9.79512V0.495117H54.06L49.605 10.7701H54.255Z" fill="black"/>
<path d="M66.8999 0.495117V4.41012H61.5749V17.9401H59.0099H54.4949L58.8599 7.66512L54.2549 7.68012V0.495117H66.8999Z" fill="black"/>
<path fill-rule="evenodd" clip-rule="evenodd" d="M66.9905 13.8748C67.8305 15.2548 68.9855 16.3348 70.4555 17.1148C71.9255 17.8948 73.5755 18.2848 75.4205 18.2848C77.2655 18.2848 78.9155 17.8948 80.3855 17.1148C81.8555 16.3348 83.0105 15.2548 83.8505 13.8748C84.6905 12.4948 85.1105 10.9348 85.1105 9.20977C85.1105 7.46977 84.6905 5.92477 83.8505 4.54477C83.0105 3.16477 81.8555 2.08477 80.3855 1.30477C78.9155 0.524766 77.2655 0.134766 75.4205 0.134766C73.5755 0.134766 71.9255 0.524766 70.4555 1.30477C68.9855 2.08477 67.8305 3.16477 66.9905 4.54477C66.1505 5.92477 65.7305 7.48477 65.7305 9.20977C65.7305 10.9498 66.1505 12.4948 66.9905 13.8748ZM79.5155 11.8198C79.0955 12.5698 78.5405 13.1548 77.8205 13.5748C77.1005 13.9948 76.3055 14.2048 75.4355 14.2048C74.5655 14.2048 73.7705 13.9948 73.0505 13.5748C72.3305 13.1548 71.7755 12.5698 71.3555 11.8198C70.9355 11.0548 70.7255 10.1848 70.7255 9.20977C70.7255 8.21977 70.9355 7.34977 71.3555 6.59977C71.7755 5.84977 72.3305 5.26477 73.0505 4.84477C73.7555 4.42477 74.5505 4.21477 75.4355 4.21477C76.3055 4.21477 77.1005 4.42477 77.8205 4.84477C78.5405 5.26477 79.0955 5.84977 79.5155 6.59977C79.9355 7.36477 80.1455 8.23477 80.1455 9.20977C80.1455 10.1998 79.9355 11.0698 79.5155 11.8198Z" fill="black"/>
<path fill-rule="evenodd" clip-rule="evenodd" d="M113.25 0.495117H108.39L101.31 16.5151L98.5197 12.4501C99.6147 11.9101 100.455 11.1901 101.055 10.2451C101.64 9.30012 101.94 8.20512 101.94 6.94512C101.94 5.64012 101.625 4.48512 100.995 3.52512C100.365 2.55012 99.4647 1.80012 98.3097 1.27512C97.1397 0.750117 95.7747 0.495117 94.1997 0.495117H86.2197V17.9401H91.1547V13.3051H93.8397L97.0047 17.9401H105.72L107.1 14.5501H114.48L115.845 17.9401H120.975L113.25 0.495117ZM96.1797 8.83512C95.6697 9.27012 94.9047 9.49512 93.8847 9.49512H91.1397V4.38012H93.8847C94.9047 4.38012 95.6697 4.60512 96.1797 5.05512C96.6897 5.50512 96.9447 6.13512 96.9447 6.94512C96.9597 7.77012 96.6897 8.40012 96.1797 8.83512ZM110.79 5.34012L108.54 10.9201H113.04L110.79 5.34012Z" fill="black"/>
</g>
</svg>
